<?xml version="1.0" standalone="no"?>
<!DOCTYPE svg PUBLIC "-//W3C//DTD SVG 20010904//EN"
 "http://www.w3.org/TR/2001/REC-SVG-20010904/DTD/svg10.dtd">
<svg version="1.0" xmlns="http://www.w3.org/2000/svg"
 width="192.000000pt" height="192.000000pt" viewBox="0 0 192.000000 192.000000"
 preserveAspectRatio="xMidYMid meet">

<g transform="translate(0.000000,192.000000) scale(0.100000,-0.100000)"
fill="#000000" stroke="none">
<path d="M0 960 l0 -960 960 0 960 0 0 960 0 960 -960 0 -960 0 0 -960z m313
297 c24 -19 30 -35 46 -133 10 -61 23 -119 29 -130 5 -10 15 -46 22 -78 13
-65 29 -106 40 -106 10 0 28 47 36 95 3 22 17 75 30 118 13 43 24 89 24 102 0
13 5 46 10 73 8 36 18 52 39 65 36 21 109 22 139 1 32 -22 39 -41 52 -132 6
-45 18 -98 26 -118 8 -20 19 -61 25 -92 11 -65 28 -112 39 -112 10 0 28 46 36
95 4 22 15 63 25 90 10 28 25 93 33 145 13 83 19 98 43 118 38 31 112 28 129
-6 14 -27 -3 -145 -34 -237 -11 -33 -23 -88 -26 -122 -4 -35 -16 -89 -27 -120
-11 -32 -24 -89 -30 -128 -5 -38 -16 -76 -24 -84 -9 -9 -44 -16 -95 -19 -92
-5 -120 9 -120 59 0 15 -11 63 -24 106 -14 43 -29 112 -35 154 -15 110 -24
129 -61 129 -37 0 -44 -14 -64 -143 -9 -51 -22 -109 -30 -128 -8 -20 -18 -60
-22 -90 -10 -78 -23 -89 -103 -88 -36 1 -79 4 -96 8 -28 6 -31 10 -38 66 -5
33 -20 96 -33 140 -13 44 -28 112 -34 150 -5 39 -17 91 -26 115 -9 25 -22 83
-29 130 -12 73 -11 88 1 108 20 31 88 31 127 -1z m1134 1 c23 -21 23 -23 23
-271 l0 -249 29 -29 c29 -29 30 -29 149 -29 133 0 139 -3 149 -64 4 -27 1 -42
-12 -56 -17 -19 -32 -20 -226 -20 -137 0 -217 4 -234 12 l-25 11 0 339 c0 325
1 339 20 358 28 28 96 27 127 -2z"/>
</g>
</svg>
